<svg xmlns="http://www.w3.org/2000/svg" viewBox="0 0 1200 630">
  <defs>
    <linearGradient id="bgGrad" x1="0%" y1="0%" x2="100%" y2="100%">
      <stop offset="0%" stop-color="#121110"/>
      <stop offset="100%" stop-color="#1E1C1A"/>
    </linearGradient>
    <linearGradient id="topGradOG" x1="0%" y1="0%" x2="100%" y2="100%">
      <stop offset="0%" stop-color="#E8BC4A"/>
      <stop offset="50%" stop-color="#D4A72C"/>
      <stop offset="100%" stop-color="#C4A77D"/>
    </linearGradient>
    <linearGradient id="leftGradOG" x1="0%" y1="0%" x2="100%" y2="100%">
      <stop offset="0%" stop-color="#8B7355"/>
      <stop offset="100%" stop-color="#5D4E37"/>
    </linearGradient>
    <linearGradient id="rightGradOG" x1="100%" y1="0%" x2="0%" y2="100%">
      <stop offset="0%" stop-color="#C4A77D"/>
      <stop offset="100%" stop-color="#9A8565"/>
    </linearGradient>
    <linearGradient id="innerGradOG" x1="0%" y1="0%" x2="100%" y2="100%">
      <stop offset="0%" stop-color="#1E1C1A"/>
      <stop offset="100%" stop-color="#121110"/>
    </linearGradient>
    <linearGradient id="textGrad" x1="0%" y1="0%" x2="100%" y2="0%">
      <stop offset="0%" stop-color="#C4A77D"/>
      <stop offset="100%" stop-color="#D4A72C"/>
    </linearGradient>
  </defs>

  <!-- Background -->
  <rect width="1200" height="630" fill="url(#bgGrad)"/>

  <!-- Decorative grid pattern -->
  <g opacity="0.03">
    <pattern id="grid" width="40" height="40" patternUnits="userSpaceOnUse">
      <path d="M 40 0 L 0 0 0 40" fill="none" stroke="#C4A77D" stroke-width="1"/>
    </pattern>
    <rect width="1200" height="630" fill="url(#grid)"/>
  </g>

  <!-- 3D Cabinet Logo - Centered -->
  <g transform="translate(600, 260)">
    <g transform="scale(1.5)">
      <polygon points="0,-70 60,-35 0,0 -60,-35" fill="url(#topGradOG)"/>
      <polygon points="-60,-35 0,0 0,70 -60,35" fill="url(#leftGradOG)"/>
      <polygon points="0,0 60,-35 60,35 0,70" fill="url(#rightGradOG)"/>
      <polygon points="0,-50 40,-25 0,-5 -40,-25" fill="url(#innerGradOG)"/>
      <polygon points="-40,-25 0,-5 0,45 -40,20" fill="#121110"/>
      <polygon points="0,-5 40,-25 40,20 0,45" fill="#1A1816"/>
      <circle cx="44" cy="17" r="4" fill="#D4A72C"/>
      <line x1="0" y1="-70" x2="60" y2="-35" stroke="#E8E4DD" stroke-width="1" opacity="0.5"/>
      <line x1="0" y1="-70" x2="-60" y2="-35" stroke="#E8E4DD" stroke-width="1" opacity="0.4"/>
    </g>
  </g>

  <!-- Text -->
  <text x="600" y="480" text-anchor="middle" font-family="Arial, sans-serif" font-size="72" font-weight="bold" fill="url(#textGrad)">CabinetViz</text>
  <text x="600" y="530" text-anchor="middle" font-family="Arial, sans-serif" font-size="24" fill="#A09890">Professional 3D Cabinet Visualization</text>

  <!-- Corner accents -->
  <rect x="40" y="40" width="60" height="4" rx="2" fill="#C4A77D" opacity="0.6"/>
  <rect x="40" y="40" width="4" height="60" rx="2" fill="#C4A77D" opacity="0.6"/>
  <rect x="1100" y="586" width="60" height="4" rx="2" fill="#C4A77D" opacity="0.6"/>
  <rect x="1156" y="530" width="4" height="60" rx="2" fill="#C4A77D" opacity="0.6"/>
</svg>